<?xml version="1.0" encoding="utf-8"?>
<!-- Generator: Adobe Illustrator 26.3.1, SVG Export Plug-In . SVG Version: 6.00 Build 0)  -->
<svg version="1.1" id="레이어_1" xmlns="http://www.w3.org/2000/svg" x="0px"
     y="0px" viewBox="0 0 200 200" style="enable-background:new 0 0 200 200;" xml:space="preserve">
<style type="text/css">
	.st0{fill:#FFFFFF;}
	.st1{fill:#724396;}
</style>
    <circle class="st0" cx="100" cy="100" r="90"/>
    <path class="st1" d="M100,0C44.77,0,0,44.77,0,100c0,55.24,44.77,100,100,100c55.23,0,100-44.76,100-100C200,44.77,155.23,0,100,0
	 M166.95,101.24l-38.14,10.99l24.05,32.29c1.37,1.72,2.07,3.44,2.07,5.15c0,1.37-0.7,3.09-2.4,4.12l-21.65,15.8
	c-1.03,0.7-2.07,1.03-3.44,1.03c-2.07,0-4.12-1.37-5.5-3.44l-22.67-33.33L76.6,167.19c-1.38,2.07-3.44,3.44-5.5,3.44
	c-1.37,0-2.4-0.34-3.44-1.03l-21.98-15.8c-1.72-1.03-2.4-2.75-2.4-4.12c0-1.72,0.68-3.44,2.05-5.15l24.05-32.29L31.6,101.24
	c-3.1-1.03-5.85-3.1-5.85-5.85c0-0.68,0-1.02,0.35-1.71l8.59-26.12c0.68-2.4,2.4-3.44,4.47-3.44c1.37,0,2.4,0.35,3.77,0.68
	l38.13,12.72l-1.02-39.51v-0.35c0-3.77,1.71-6.87,5.49-6.87h27.49c3.77,0,5.15,3.1,5.15,7.22l-0.35,39.51l37.45-12.72
	c1.38-0.34,2.4-0.68,3.78-0.68c2.05,0,3.77,1.03,4.47,3.44l8.59,26.12c0.34,0.68,0.34,1.37,0.34,1.71
	C172.44,98.49,170.04,100.2,166.95,101.24"/>
</svg>
